<?xml version="1.0" standalone="no"?>
<!DOCTYPE svg PUBLIC "-//W3C//DTD SVG 20010904//EN"
 "http://www.w3.org/TR/2001/REC-SVG-20010904/DTD/svg10.dtd">
<svg version="1.0" xmlns="http://www.w3.org/2000/svg"
 width="225.000000pt" height="225.000000pt" viewBox="0 0 225.000000 225.000000"
 preserveAspectRatio="xMidYMid meet">
<metadata>
Created by potrace 1.15, written by Peter Selinger 2001-2017
</metadata>
<g transform="translate(0.000000,225.000000) scale(0.100000,-0.100000)"
fill="#000000" stroke="none">
<path d="M1025 2224 c-95 -10 -244 -48 -324 -83 -269 -117 -451 -290 -576
-546 -76 -157 -124 -390 -111 -540 28 -304 130 -524 343 -740 214 -216 589
-343 895 -305 458 57 838 388 949 826 50 199 48 370 -7 574 -105 395 -438 710
-834 790 -104 21 -258 32 -335 24z m328 -403 c245 -62 383 -175 438 -359 7
-24 22 -48 33 -54 12 -6 29 -17 39 -26 16 -14 16 -17 -8 -57 -13 -23 -22 -45
-19 -48 3 -3 3 -11 -1 -17 -5 -8 -11 -8 -22 1 -11 10 -16 10 -22 0 -5 -7 -18
-10 -33 -6 -18 5 -27 2 -31 -9 -4 -9 -13 -16 -21 -16 -8 0 -26 -11 -40 -25
-26 -26 -60 -33 -71 -15 -4 6 -21 8 -39 4 -21 -3 -58 2 -101 15 -90 28 -133
27 -169 -4 -16 -13 -32 -22 -36 -20 -5 3 -22 -11 -39 -31 -23 -25 -37 -34 -51
-29 -11 3 -30 -1 -44 -10 -23 -15 -25 -15 -46 7 -20 22 -22 22 -35 5 -7 -10
-16 -14 -19 -9 -7 12 -46 4 -46 -9 0 -5 -9 -9 -19 -9 -11 0 -23 -4 -26 -10
-10 -15 -52 -12 -59 5 -7 19 -30 19 -61 -1 -21 -14 -26 -14 -54 0 -16 9 -39
16 -50 16 -11 0 -23 5 -26 10 -3 6 -30 10 -60 10 -53 0 -54 0 -66 38 -6 20
-18 41 -25 45 -8 4 -14 14 -14 22 0 11 -7 11 -36 3 -41 -11 -53 -5 -37 20 9
16 7 17 -23 14 -21 -3 -34 0 -34 7 0 6 5 11 10 11 6 0 15 20 22 45 7 25 16 45
20 45 4 0 8 15 8 33 0 95 50 194 134 267 44 39 197 118 240 126 21 3 55 13 74
21 95 40 295 37 465 -6z m-875 -694 c73 -78 201 -104 587 -119 l290 -11 141
36 c139 35 215 65 263 105 l25 19 60 -43 c34 -24 71 -51 84 -59 12 -9 22 -26
22 -40 0 -25 -1 -25 -87 -25 -49 0 -106 -5 -128 -11 -40 -11 -223 -111 -322
-176 l-51 -34 -44 30 c-82 55 -167 72 -418 81 -250 9 -271 13 -464 95 -58 25
-111 45 -120 45 -8 0 -17 4 -20 9 -12 18 8 44 78 102 56 46 72 55 74 41 2 -9
16 -30 30 -45z m1375 -212 c30 -27 37 -72 11 -82 -11 -4 -14 -13 -9 -30 4 -16
1 -25 -11 -30 -11 -4 -14 -14 -10 -34 6 -32 -19 -54 -48 -43 -12 5 -16 0 -16
-18 0 -32 -21 -50 -100 -86 -79 -35 -193 -66 -320 -87 -111 -18 -386 -20 -493
-4 -109 16 -228 55 -278 91 -58 41 -68 56 -69 97 0 33 -1 33 -34 28 -22 -3
-41 0 -53 9 -17 13 -17 14 3 31 28 23 38 67 22 94 -11 18 -10 23 12 40 24 20
24 20 31 1 8 -22 56 -53 113 -73 21 -8 42 -23 46 -34 25 -65 176 -108 248 -71
20 10 54 13 140 9 61 -3 112 -9 112 -13 0 -13 51 -30 89 -30 27 0 44 7 60 24
16 17 37 25 82 30 33 3 97 15 142 27 45 11 102 20 127 18 70 -3 87 0 103 16 9
8 13 23 10 33 -2 10 3 24 11 31 9 8 16 22 16 31 0 28 11 50 24 50 6 0 23 -12
39 -25z"/>
</g>
</svg>
